<?xml version="1.0" encoding="utf-8"?>
<!-- Generator: Adobe Illustrator 23.0.4, SVG Export Plug-In . SVG Version: 6.00 Build 0)  -->
<!DOCTYPE svg PUBLIC "-//W3C//DTD SVG 1.1//EN" "http://www.w3.org/Graphics/SVG/1.1/DTD/svg11.dtd" [
	<!ENTITY ns_extend "http://ns.adobe.com/Extensibility/1.0/">
	<!ENTITY ns_ai "http://ns.adobe.com/AdobeIllustrator/10.0/">
	<!ENTITY ns_graphs "http://ns.adobe.com/Graphs/1.0/">
	<!ENTITY ns_vars "http://ns.adobe.com/Variables/1.0/">
	<!ENTITY ns_imrep "http://ns.adobe.com/ImageReplacement/1.0/">
	<!ENTITY ns_sfw "http://ns.adobe.com/SaveForWeb/1.0/">
	<!ENTITY ns_custom "http://ns.adobe.com/GenericCustomNamespace/1.0/">
	<!ENTITY ns_adobe_xpath "http://ns.adobe.com/XPath/1.0/">
]>
<svg version="1.1"
	 id="Layer_1" xmlns:x="&ns_extend;" xmlns:i="&ns_ai;" xmlns:graph="&ns_graphs;" xmlns:serif="http://www.serif.com/"
	 xmlns="http://www.w3.org/2000/svg" xmlns:xlink="http://www.w3.org/1999/xlink" x="0px" y="0px" viewBox="0 0 100 125"
	 style="enable-background:new 0 0 100 125;" xml:space="preserve">
<style type="text/css">
	.st0{fill:#841D9E;}
</style>
<metadata>
	<sfw  xmlns="&ns_sfw;">
		<slices></slices>
		<sliceSourceBounds  bottomLeftOrigin="true" height="94" width="94" x="3" y="28"></sliceSourceBounds>
	</sfw>
</metadata>
<path class="st0" d="M90,39h-2.4c-1.2,0-2.4-0.8-2.8-1.9c-0.2-0.6-0.4-1.1-0.7-1.7c-0.5-1.1-0.2-2.4,0.6-3.2l1.9-1.9
	c2.6-2.7,2.6-7,0-9.7l-6.5-6.7c-1.3-1.4-3.1-2.1-5-2.1c-1.9,0-3.7,0.8-5,2.1l-1.5,1.6c-0.9,0.9-2.2,1.2-3.4,0.6
	c-0.4-0.2-0.9-0.4-1.3-0.6C62.8,15,62,13.9,62,12.7V10c0-3.8-3.2-7-7-7h-9c-3.8,0-7,3.2-7,7v2.4c0,1.2-0.8,2.4-1.9,2.8
	c-0.6,0.2-1.1,0.4-1.7,0.7c-1.1,0.5-2.4,0.2-3.2-0.6l-1.9-1.9c-2.7-2.6-7-2.6-9.7,0l-6.7,6.5c-1.4,1.3-2.1,3.1-2.1,5
	c0,1.9,0.8,3.7,2.1,5l1.6,1.5c0.9,0.9,1.2,2.2,0.6,3.4c-0.2,0.4-0.4,0.9-0.6,1.3C15,37.2,13.9,38,12.7,38H10c-3.8,0-7,3.2-7,7v9
	c0,3.8,3.2,7,7,7h2.4c1.2,0,2.4,0.8,2.8,1.9c0.2,0.6,0.4,1.1,0.7,1.6c0.5,1.1,0.2,2.4-0.6,3.2l-1.9,1.9c-2.6,2.7-2.6,7,0,9.7
	l6.5,6.7c1.3,1.4,3.1,2.1,5,2.1c1.9,0,3.7-0.8,5-2.1l1.5-1.5c0.9-0.9,2.3-1.2,3.5-0.7c0.4,0.2,0.9,0.4,1.3,0.6
	c1.1,0.5,1.9,1.6,1.9,2.8V90c0,3.8,3.2,7,7,7h9c3.8,0,7-3.2,7-7v-2.4c0-1.2,0.8-2.3,1.9-2.8c0.5-0.2,1-0.4,1.5-0.6
	c1.1-0.5,2.4-0.2,3.3,0.6l1.7,1.7c1.3,1.3,3.1,2.1,4.9,2.1s3.6-0.7,4.9-2.1l6.6-6.5c1.3-1.3,2.1-3.1,2.1-4.9c0-1.9-0.7-3.6-2.1-5
	l-1.7-1.7c-0.4-0.4-0.9-0.6-1.4-0.6c-1.1,0-2,0.9-2,2c0,0.5,0.2,1,0.6,1.4l1.7,1.7c1.2,1.2,1.2,3.1,0,4.2l-6.6,6.6
	c-1.2,1.1-3.1,1.1-4.2,0L70.5,82c-2-2-5.1-2.6-7.7-1.5c-0.4,0.2-0.9,0.4-1.3,0.5c-2.7,1-4.5,3.6-4.5,6.5V90c0,1.6-1.4,3-3,3h-9
	c-1.6,0-3-1.4-3-3v-2.7c0-2.8-1.7-5.4-4.4-6.5c-0.4-0.2-0.8-0.3-1.2-0.5c-2.7-1.2-5.8-0.6-7.9,1.5L27,83.4c-0.6,0.6-1.3,0.9-2.2,0.9
	c-0.8,0-1.6-0.3-2.2-0.9l-6.5-6.7c-1.1-1.2-1.1-3,0-4.2l1.9-1.9c2-2,2.5-5,1.4-7.6c-0.2-0.5-0.4-1-0.6-1.5c-1-2.7-3.6-4.5-6.5-4.5
	H10c-1.6,0-3-1.4-3-3v-9c0-1.6,1.4-3,3-3h2.7c2.9,0,5.4-1.7,6.5-4.4c0.2-0.4,0.3-0.8,0.5-1.2c1.2-2.7,0.6-5.8-1.5-7.9L16.6,27
	c-0.6-0.6-0.9-1.3-0.9-2.2c0-0.8,0.3-1.6,0.9-2.2l6.7-6.5c1.2-1.1,3-1.1,4.2,0l1.9,1.9c2,2,5,2.5,7.6,1.4l1.5-0.6
	c2.7-1,4.5-3.6,4.5-6.5V10c0-1.6,1.4-3,3-3h9c1.6,0,3,1.4,3,3v2.7c0,2.9,1.7,5.4,4.4,6.5c0.4,0.2,0.8,0.3,1.2,0.5
	c2.7,1.2,5.8,0.6,7.9-1.5l1.5-1.6c0.6-0.6,1.3-0.9,2.2-0.9c0.8,0,1.6,0.3,2.2,0.9l6.5,6.7c1.1,1.2,1.1,3,0,4.2l-1.9,1.9
	c-2,2-2.5,5-1.4,7.6c0.2,0.5,0.4,1,0.6,1.5c1,2.7,3.6,4.5,6.5,4.5H90c1.6,0,3,1.4,3,3v9c0,1.6-1.4,3-3,3h-2c-1.1,0-2,0.9-2,2
	s0.9,2,2,2h2c3.8,0,7-3.2,7-7v-9C97,42.2,93.8,39,90,39z"/>
<path class="st0" d="M50,40c-5.5,0-10,4.5-10,10s4.5,10,10,10s10-4.5,10-10S55.5,40,50,40z M50,56c-3.3,0-6-2.7-6-6s2.7-6,6-6
	s6,2.7,6,6S53.3,56,50,56z"/>
<path class="st0" d="M50,24c-14.3,0-26,11.7-26,26s11.7,26,26,26s26-11.7,26-26S64.3,24,50,24z M50,72c-12.1,0-22-9.9-22-22
	s9.9-22,22-22s22,9.9,22,22S62.1,72,50,72z"/>
</svg>
