<?xml version="1.0" encoding="utf-8"?>
<!-- Generator: Adobe Illustrator 23.0.4, SVG Export Plug-In . SVG Version: 6.00 Build 0)  -->
<!DOCTYPE svg PUBLIC "-//W3C//DTD SVG 1.1//EN" "http://www.w3.org/Graphics/SVG/1.1/DTD/svg11.dtd" [
	<!ENTITY ns_extend "http://ns.adobe.com/Extensibility/1.0/">
	<!ENTITY ns_ai "http://ns.adobe.com/AdobeIllustrator/10.0/">
	<!ENTITY ns_graphs "http://ns.adobe.com/Graphs/1.0/">
	<!ENTITY ns_vars "http://ns.adobe.com/Variables/1.0/">
	<!ENTITY ns_imrep "http://ns.adobe.com/ImageReplacement/1.0/">
	<!ENTITY ns_sfw "http://ns.adobe.com/SaveForWeb/1.0/">
	<!ENTITY ns_custom "http://ns.adobe.com/GenericCustomNamespace/1.0/">
	<!ENTITY ns_adobe_xpath "http://ns.adobe.com/XPath/1.0/">
]>
<svg version="1.1" id="Layer_1" xmlns:x="&ns_extend;" xmlns:i="&ns_ai;" xmlns:graph="&ns_graphs;"
	 xmlns="http://www.w3.org/2000/svg" xmlns:xlink="http://www.w3.org/1999/xlink" x="0px" y="0px" viewBox="0 0 512 640"
	 style="enable-background:new 0 0 512 640;" xml:space="preserve">
<style type="text/css">
	.st0{fill:#841D9E;}
</style>
<metadata>
	<sfw  xmlns="&ns_sfw;">
		<slices></slices>
		<sliceSourceBounds  bottomLeftOrigin="true" height="311.9" width="430.6" x="40.7" y="228"></sliceSourceBounds>
	</sfw>
</metadata>
<g>
	<g>
		<g>
			<path class="st0" d="M426.1,398.1H258.5c-2.2,0-3.9-1.8-3.9-3.9v-2c0-2.2,1.8-3.9,3.9-3.9c1.5,0,2.7,0.8,3.4,2h160.3V220.6
				c0-2.2,1.8-3.9,3.9-3.9c2.2,0,3.9,1.8,3.9,3.9v173.5C430,396.3,428.2,398.1,426.1,398.1z M258.5,347.1c-2.2,0-3.9-1.8-3.9-3.9
				V220.6c0-1.1,0.5-2.1,1.2-2.9l83.8-78.2c1.5-1.4,3.8-1.4,5.3,0l77.5,72.3c1.6,1.5,1.7,4,0.2,5.5c-1.5,1.6-4,1.7-5.5,0.2
				l-74.8-69.8l-79.9,74.5v120.8C262.4,345.3,260.6,347.1,258.5,347.1z"/>
		</g>
		<g>
			<path class="st0" d="M451.3,248c-1,0-1.9-0.4-2.7-1.1l-106.3-99.1l-15,14c-1.6,1.5-4.1,1.4-5.5-0.2c-1.5-1.6-1.4-4.1,0.2-5.5
				l17.6-16.4c1.5-1.4,3.8-1.4,5.3,0L447.4,235v-10.2l-105.1-98l-105.1,98v10.2l48.9-45.6c1.6-1.5,4.1-1.4,5.5,0.2
				c1.5,1.6,1.4,4.1-0.2,5.5l-55.5,51.8c-1.1,1.1-2.8,1.4-4.2,0.7s-2.4-2-2.4-3.6v-20.9c0-1.1,0.5-2.1,1.2-2.9l109-101.7
				c1.5-1.4,3.8-1.4,5.4,0l109,101.7c0.8,0.7,1.2,1.8,1.2,2.9v20.9c0,1.6-0.9,3-2.4,3.6C452.4,247.9,451.8,248,451.3,248z"/>
		</g>
		<g>
			<path class="st0" d="M418.9,196.9c-1,0-1.9-0.4-2.7-1.1l-18.7-17.5c-0.8-0.7-1.2-1.8-1.2-2.9v-14.3c0-2.2,1.8-3.9,3.9-3.9h18.7
				c2.2,0,3.9,1.8,3.9,3.9V193c0,1.6-0.9,3-2.4,3.6C420,196.8,419.4,196.9,418.9,196.9z M404.1,173.8L415,184v-18.8h-10.8V173.8z"/>
		</g>
		<g>
			<path class="st0" d="M258.5,398.1H85.3c-2.2,0-3.9-1.8-3.9-3.9v-23.3c0-1,0.4-2,1.1-2.8c2.2-2.2,3.3-5,3.3-8c0-3-1.2-5.8-3.3-7.9
				c-0.8-0.7-1.2-1.7-1.2-2.8v-46.6c0-2.2,1.8-3.9,3.9-3.9h76.2c2.2,0,3.9,1.8,3.9,3.9s-1.8,3.9-3.9,3.9H89.2v41.1
				c2.9,3.4,4.5,7.7,4.5,12.3c0,4.5-1.6,8.9-4.5,12.3v17.8h165.3v-83.5h-44.1c-2.2,0-3.9-1.8-3.9-3.9s1.8-3.9,3.9-3.9h48
				c2.2,0,3.9,1.8,3.9,3.9v91.4C262.4,396.3,260.6,398.1,258.5,398.1z"/>
		</g>
		<g>
			<path class="st0" d="M258.5,306.7H65.9c-1.4,0-2.8-0.8-3.5-2.1c-0.7-1.3-0.6-2.8,0.2-4l19.3-29c0.7-1.1,2-1.7,3.3-1.7h115.8
				c2.2,0,3.9,1.8,3.9,3.9c0,2.2-1.8,3.9-3.9,3.9H87.4l-14.1,21.1h181.3v-21.1h-4.4c-2.2,0-3.9-1.8-3.9-3.9c0-2.2,1.8-3.9,3.9-3.9
				h8.4c2.2,0,3.9,1.8,3.9,3.9v29C262.4,304.9,260.6,306.7,258.5,306.7z"/>
		</g>
		<g>
			<path class="st0" d="M258.5,277.7H123c-1.3,0-2.6-0.7-3.3-1.8c-0.7-1.1-0.8-2.6-0.2-3.8l10.2-21.2c0.7-1.4,2-2.2,3.5-2.2h125.2
				c2.2,0,3.9,1.8,3.9,3.9v21.2C262.4,276,260.6,277.7,258.5,277.7z M129.2,269.9h125.3v-13.4H135.7L129.2,269.9z"/>
		</g>
		<g>
			<path class="st0" d="M147.7,398.1h-33.4c-2.2,0-3.9-1.8-3.9-3.9v-65.4c0-2.2,1.8-3.9,3.9-3.9h33.4c2.2,0,3.9,1.8,3.9,3.9v65.4
				C151.7,396.3,149.9,398.1,147.7,398.1z M118.3,390.2h25.5v-57.5h-25.5C118.3,332.7,118.3,390.2,118.3,390.2z"/>
		</g>
		<g>
			<path class="st0" d="M237.7,372.9h-68.6c-2.2,0-3.9-1.8-3.9-3.9v-40.2c0-2.2,1.8-3.9,3.9-3.9h68.6c2.2,0,3.9,1.8,3.9,3.9V369
				C241.7,371.2,239.9,372.9,237.7,372.9z M173.1,365.1h60.8v-32.4h-60.8V365.1z"/>
		</g>
		<g>
			<path class="st0" d="M237.7,346.8h-58.9c-2.2,0-3.9-1.8-3.9-3.9s1.8-3.9,3.9-3.9h58.9c2.2,0,3.9,1.8,3.9,3.9
				S239.9,346.8,237.7,346.8z"/>
		</g>
		<g>
			<path class="st0" d="M237.7,358.5h-58.9c-2.2,0-3.9-1.8-3.9-3.9c0-2.2,1.8-3.9,3.9-3.9h58.9c2.2,0,3.9,1.8,3.9,3.9
				C241.7,356.7,239.9,358.5,237.7,358.5z"/>
		</g>
		<g>
			<path class="st0" d="M324.7,331.4h-35.2c-2.2,0-3.9-1.8-3.9-3.9v-35.2c0-2.2,1.8-3.9,3.9-3.9h35.2c2.2,0,3.9,1.8,3.9,3.9v35.2
				C328.6,329.6,326.8,331.4,324.7,331.4z M293.4,323.6h27.4v-27.4h-27.4V323.6z"/>
		</g>
		<g>
			<path class="st0" d="M359.9,331.4h-35.2c-2.2,0-3.9-1.8-3.9-3.9v-35.2c0-2.2,1.8-3.9,3.9-3.9h35.2c2.2,0,3.9,1.8,3.9,3.9v35.2
				C363.8,329.6,362.1,331.4,359.9,331.4z M328.6,323.6H356v-27.4h-27.4V323.6z"/>
		</g>
		<g>
			<path class="st0" d="M395.1,331.4h-35.2c-2.2,0-3.9-1.8-3.9-3.9v-35.2c0-2.2,1.8-3.9,3.9-3.9h35.2c2.2,0,3.9,1.8,3.9,3.9v35.2
				C399.1,329.6,397.3,331.4,395.1,331.4z M363.8,323.6h27.4v-27.4h-27.4V323.6z"/>
		</g>
		<g>
			<path class="st0" d="M324.7,366.6h-35.2c-2.2,0-3.9-1.8-3.9-3.9v-35.2c0-2.2,1.8-3.9,3.9-3.9h35.2c2.2,0,3.9,1.8,3.9,3.9v35.2
				C328.6,364.9,326.8,366.6,324.7,366.6z M293.4,358.8h27.4v-27.4h-27.4V358.8z"/>
		</g>
		<g>
			<path class="st0" d="M359.9,366.6h-35.2c-2.2,0-3.9-1.8-3.9-3.9v-35.2c0-2.2,1.8-3.9,3.9-3.9h35.2c2.2,0,3.9,1.8,3.9,3.9v35.2
				C363.8,364.9,362.1,366.6,359.9,366.6z M328.6,358.8H356v-27.4h-27.4V358.8z"/>
		</g>
		<g>
			<path class="st0" d="M395.1,366.6h-35.2c-2.2,0-3.9-1.8-3.9-3.9v-35.2c0-2.2,1.8-3.9,3.9-3.9h35.2c2.2,0,3.9,1.8,3.9,3.9v35.2
				C399.1,364.9,397.3,366.6,395.1,366.6z M363.8,358.8h27.4v-27.4h-27.4V358.8z"/>
		</g>
		<g>
			<path class="st0" d="M467.4,398.1h-30.6c-2.2,0-3.9-1.8-3.9-3.9s1.8-3.9,3.9-3.9h30.6c2.2,0,3.9,1.8,3.9,3.9
				S469.6,398.1,467.4,398.1z M387.7,398.1H44.6c-2.2,0-3.9-1.8-3.9-3.9s1.8-3.9,3.9-3.9h343.1c2.2,0,3.9,1.8,3.9,3.9
				S389.9,398.1,387.7,398.1z"/>
		</g>
		<g>
			<path class="st0" d="M412.7,412h-190c-2.2,0-3.9-1.8-3.9-3.9c0-2.2,1.8-3.9,3.9-3.9h190c2.2,0,3.9,1.8,3.9,3.9
				C416.6,410.2,414.9,412,412.7,412z"/>
		</g>
		<g>
			<path class="st0" d="M141.2,411.6h-90c-2.2,0-3.9-1.8-3.9-3.9c0-2.2,1.8-3.9,3.9-3.9h90c2.2,0,3.9,1.8,3.9,3.9
				C145.1,409.8,143.4,411.6,141.2,411.6z"/>
		</g>
		<g>
			<path class="st0" d="M172.2,210h-43.7c-6.5,0-11.8-5.3-11.8-11.7c0-5.2,3.4-9.6,8-11.2c0.8-4.6,4.3-8.3,8.8-9.5
				c1.9-4.1,6-6.9,10.7-6.9c1,0,2,0.1,2.9,0.4c2.4-2.2,5.6-3.5,9-3.5c6.2,0,11.3,4.2,12.8,10c7.2,0.1,13,5.9,13,13.1
				c0,0.3,0,0.5,0,0.8c1.4,2,2.2,4.3,2.2,6.8C184,204.7,178.7,210,172.2,210z M136.3,185.1c-2.2,0-3.9,1.8-3.9,4
				c0,0.2,0,0.4,0.1,0.7c0.2,1.1-0.2,2.3-0.9,3.1c-0.7,0.9-1.8,1.4-3,1.4c-2.3,0-4,1.7-4,4c0,2.2,1.8,3.9,4,3.9h43.7
				c2.2,0,4-1.8,4-3.9c0-1.4-0.7-2.3-1.2-2.8c-1-0.9-1.4-2.3-1.1-3.6c0.1-0.5,0.1-0.9,0.1-1.2c0-3.6-3.6-6.3-7.3-4.8
				c-1.3,0.6-2.9,0.3-4-0.6c-1.1-0.9-1.6-2.4-1.3-3.8c0,0,0-0.2,0-0.7c0-2.9-2.4-5.3-5.3-5.3c-1.8,0-3.5,0.9-4.4,2.5
				c-0.6,0.9-1.4,1.5-2.5,1.8c-1,0.2-2.1,0-3-0.5c-0.6-0.4-1.2-0.5-2-0.5c-1.9,0-3.6,1.4-3.9,3.3c-0.3,1.9-1.9,3.3-3.9,3.3
				L136.3,185.1L136.3,185.1z"/>
		</g>
		<g>
			<path class="st0" d="M342.3,228.9c-14.1,0-25.6-11.5-25.6-25.6c0-14.1,11.5-25.6,25.6-25.6c14.1,0,25.6,11.5,25.6,25.6
				C367.9,217.4,356.4,228.9,342.3,228.9z M342.3,185.5c-9.8,0-17.7,8-17.7,17.7c0,9.8,8,17.7,17.7,17.7c9.8,0,17.7-8,17.7-17.7
				C360,193.5,352.1,185.5,342.3,185.5z"/>
		</g>
		<g>
			<path class="st0" d="M243.6,217.5c-0.5,0-1.1-0.1-1.6-0.3c-1.4-0.6-2.4-2-2.4-3.6v-48.4c0-2.2,1.8-3.9,3.9-3.9h51.9
				c1.6,0,3.1,1,3.6,2.5c0.6,1.5,0.2,3.2-1,4.3l-51.9,48.4C245.5,217.1,244.5,217.5,243.6,217.5z M247.5,169.1v35.4l38-35.4H247.5z"
				/>
		</g>
		<g>
			<path class="st0" d="M282.1,152h-55.7c-7.7,0-14-6.3-14-13.9c0-6.3,4.3-11.7,10.1-13.4c0.7-5.9,5.2-10.7,11-11.9
				c2.1-5.2,7.1-8.7,12.9-8.7c1.4,0,2.8,0.2,4.1,0.6c2.9-2.9,6.9-4.6,11.1-4.6c7.6,0,14,5.5,15.4,12.7c0.2,0,0.4,0,0.7,0
				c8.6,0,15.6,7,15.6,15.7c0,0.4,0,0.8,0,1.2c1.8,2.4,2.8,5.4,2.8,8.4C296,145.7,289.7,152,282.1,152z M236.3,120.3
				c-3.4,0-6.1,2.7-6.1,6.1c0,0.4,0,0.7,0.1,0.9c0.2,1.1-0.1,2.3-0.9,3.2c-0.7,0.9-1.8,1.4-3,1.4c-3.4,0-6.2,2.7-6.2,6.1
				c0,3.4,2.8,6.1,6.1,6.1h55.7c3.3,0,6.1-2.7,6.1-6.1c0-1.7-0.7-3.2-1.8-4.4c-1-0.9-1.4-2.3-1.1-3.6c0.1-0.6,0.2-1.1,0.2-1.7
				c0-4.3-3.5-7.8-7.8-7.8c-1,0-2,0.2-2.9,0.6c-1.3,0.6-2.8,0.4-4-0.5c-1.1-0.9-1.7-2.3-1.5-3.7c0.1-0.5,0.1-0.9,0.1-1.3
				c0-4.3-3.5-7.8-7.8-7.8c-2.7,0-5.2,1.4-6.6,3.7c-1.1,1.8-3.6,2.4-5.4,1.2c-0.9-0.6-2-0.9-3.2-0.9c-3,0-5.5,2.2-6,5.1
				c-0.3,1.9-2,3.3-3.9,3.3L236.3,120.3L236.3,120.3z"/>
		</g>
		<g>
			<path class="st0" d="M74.6,379.2c-10.5,0-19.1-8.6-19.1-19.1c0-10.5,8.6-19.1,19.1-19.1c10.5,0,19.1,8.5,19.1,19.1
				C93.7,370.6,85.1,379.2,74.6,379.2z M74.6,348.9c-6.2,0-11.2,5-11.2,11.2c0,6.2,5,11.3,11.2,11.3c6.2,0,11.2-5.1,11.2-11.3
				C85.8,353.9,80.8,348.9,74.6,348.9z"/>
		</g>
		<g>
			<path class="st0" d="M74.6,398.1c-2.2,0-3.9-1.8-3.9-3.9v-34.1c0-2.2,1.8-3.9,3.9-3.9s3.9,1.8,3.9,3.9v34.1
				C78.5,396.3,76.8,398.1,74.6,398.1z"/>
		</g>
		<g>
			<path class="st0" d="M448.1,379.2c-10.5,0-19.1-8.6-19.1-19.1c0-10.5,8.6-19.1,19.1-19.1c10.5,0,19.1,8.5,19.1,19.1
				C467.1,370.6,458.6,379.2,448.1,379.2z M448.1,348.9c-6.2,0-11.3,5-11.3,11.2c0,6.2,5.1,11.3,11.3,11.3c6.2,0,11.2-5.1,11.2-11.3
				C459.3,353.9,454.3,348.9,448.1,348.9z"/>
		</g>
		<g>
			<path class="st0" d="M448.1,398.1c-2.2,0-3.9-1.8-3.9-3.9v-34.1c0-2.2,1.8-3.9,3.9-3.9c2.2,0,3.9,1.8,3.9,3.9v34.1
				C452,396.3,450.2,398.1,448.1,398.1z"/>
		</g>
	</g>
</g>
</svg>
