<?xml version="1.0" encoding="utf-8"?>
<!-- Generator: Adobe Illustrator 23.0.4, SVG Export Plug-In . SVG Version: 6.00 Build 0)  -->
<!DOCTYPE svg PUBLIC "-//W3C//DTD SVG 1.1//EN" "http://www.w3.org/Graphics/SVG/1.1/DTD/svg11.dtd" [
	<!ENTITY ns_extend "http://ns.adobe.com/Extensibility/1.0/">
	<!ENTITY ns_ai "http://ns.adobe.com/AdobeIllustrator/10.0/">
	<!ENTITY ns_graphs "http://ns.adobe.com/Graphs/1.0/">
	<!ENTITY ns_vars "http://ns.adobe.com/Variables/1.0/">
	<!ENTITY ns_imrep "http://ns.adobe.com/ImageReplacement/1.0/">
	<!ENTITY ns_sfw "http://ns.adobe.com/SaveForWeb/1.0/">
	<!ENTITY ns_custom "http://ns.adobe.com/GenericCustomNamespace/1.0/">
	<!ENTITY ns_adobe_xpath "http://ns.adobe.com/XPath/1.0/">
]>
<svg version="1.1"
	 id="Layer_1" xmlns:x="&ns_extend;" xmlns:i="&ns_ai;" xmlns:graph="&ns_graphs;" xmlns:cc="http://creativecommons.org/ns#" xmlns:dc="http://purl.org/dc/elements/1.1/" xmlns:inkscape="http://www.inkscape.org/namespaces/inkscape" xmlns:rdf="http://www.w3.org/1999/02/22-rdf-syntax-ns#" xmlns:sodipodi="http://sodipodi.sourceforge.net/DTD/sodipodi-0.dtd" xmlns:svg="http://www.w3.org/2000/svg"
	 xmlns="http://www.w3.org/2000/svg" xmlns:xlink="http://www.w3.org/1999/xlink" x="0px" y="0px" viewBox="0 0 100 125"
	 style="enable-background:new 0 0 100 125;" xml:space="preserve">
<style type="text/css">
	.st0{fill:#841D9E;}
</style>
<metadata>
	<sfw  xmlns="&ns_sfw;">
		<slices></slices>
		<sliceSourceBounds  bottomLeftOrigin="true" height="68" width="88" x="6" y="41"></sliceSourceBounds>
	</sfw>
</metadata>
<g transform="translate(0,-952.36218)">
	<path class="st0" d="M12.8,968.4c-3.8,0-6.8,3.1-6.8,6.9v25.6c0,3.8,3,6.9,6.8,6.9h1.8v8.7c0,1.1,0.9,2,2,2c0.5,0,1.1-0.2,1.5-0.6
		l9.8-10.1h9.8v11c0,3.8,3,6.9,6.8,6.9h27.7l9.8,10.1c0.8,0.8,2,0.8,2.8,0c0.4-0.4,0.6-0.9,0.6-1.4v-8.7h1.8c3.8,0,6.8-3.1,6.8-6.9
		v-25.6c0-3.8-3-6.9-6.8-6.9H44.4c-3.8,0-6.8,3.1-6.8,6.9v5.1c0,1.1,0.9,2,2,2c1.1,0,2-0.9,2-2c0,0,0,0,0-0.1v-5.1
		c0-1.7,1.2-2.9,2.8-2.9h42.8c1.6,0,2.8,1.2,2.8,2.9v25.6c0,1.7-1.2,2.9-2.8,2.9h-3.8c-1.1,0-2,0.9-2,2v5.8l-7-7.2
		c-0.4-0.4-0.9-0.6-1.4-0.6H44.4c-1.6,0-2.8-1.2-2.8-2.9v-11h13.9c3.8,0,6.8-3.1,6.8-6.9V995c0-1.1-0.9-2-2-2s-2,0.9-2,2
		c0,0,0,0,0,0.1v5.8c0,1.7-1.2,2.9-2.8,2.9H27.1c-0.5,0-1.1,0.2-1.4,0.6l-7,7.2v-5.8c0-1.1-0.9-2-2-2h-3.8c-1.6,0-2.8-1.2-2.8-2.9
		v-25.6c0-1.7,1.2-2.9,2.8-2.9h42.8c1.6,0,2.8,1.2,2.8,2.9v5.7c0,1.1,0.9,2,2,2c1.1,0,2-0.9,2-2c0,0,0,0,0-0.1v-5.7
		c0-3.8-3-6.9-6.8-6.9H12.8z"/>
</g>
</svg>
