<?xml version="1.0" encoding="utf-8"?>
<!-- Generator: Adobe Illustrator 23.0.4, SVG Export Plug-In . SVG Version: 6.00 Build 0)  -->
<!DOCTYPE svg PUBLIC "-//W3C//DTD SVG 1.1//EN" "http://www.w3.org/Graphics/SVG/1.1/DTD/svg11.dtd" [
	<!ENTITY ns_extend "http://ns.adobe.com/Extensibility/1.0/">
	<!ENTITY ns_ai "http://ns.adobe.com/AdobeIllustrator/10.0/">
	<!ENTITY ns_graphs "http://ns.adobe.com/Graphs/1.0/">
	<!ENTITY ns_vars "http://ns.adobe.com/Variables/1.0/">
	<!ENTITY ns_imrep "http://ns.adobe.com/ImageReplacement/1.0/">
	<!ENTITY ns_sfw "http://ns.adobe.com/SaveForWeb/1.0/">
	<!ENTITY ns_custom "http://ns.adobe.com/GenericCustomNamespace/1.0/">
	<!ENTITY ns_adobe_xpath "http://ns.adobe.com/XPath/1.0/">
]>
<svg version="1.1" id="Layer_1" xmlns:x="&ns_extend;" xmlns:i="&ns_ai;" xmlns:graph="&ns_graphs;"
	 xmlns="http://www.w3.org/2000/svg" xmlns:xlink="http://www.w3.org/1999/xlink" x="0px" y="0px" viewBox="0 0 100 125"
	 style="enable-background:new 0 0 100 125;" xml:space="preserve">
<style type="text/css">
	.st0{fill-rule:evenodd;clip-rule:evenodd;fill:#841D9E;}
</style>
<metadata>
	<sfw  xmlns="&ns_sfw;">
		<slices></slices>
		<sliceSourceBounds  bottomLeftOrigin="true" height="81.9" width="91.3" x="8.7" y="38"></sliceSourceBounds>
	</sfw>
</metadata>
<path class="st0" d="M39.9,69.9l0.2-1.8l-3-1.6l-0.1,0c-0.1-0.1-0.2-0.1-0.3-0.2c-0.3-0.3-0.5-0.6-0.5-1c0-0.2,0-0.3,0-0.5l0.3-3.4
	l-1.6-0.8l-5.5,9C29.4,69.7,39.9,69.9,39.9,69.9z M43.6,68.6c14.7-8,29.6-15.6,44.1-23.9c-2-3.5-3.8-7-5.7-10.5l-44,24.1
	c0.4,0.2,0.8,0.4,1.1,0.6c0.1,0.1,0.3,0.2,0.4,0.3c0.3,0.3,0.5,0.6,0.5,1c0,0.2,0,0.3,0,0.5L39.7,64l3,1.6l0.1,0
	c0.1,0.1,0.2,0.1,0.3,0.2c0.3,0.2,0.4,0.5,0.5,0.9c0,0.2,0,0.3,0,0.5C43.6,67.6,43.6,68.1,43.6,68.6z M90.7,42.9c1.7-1,3.4-2,5.1-3
	c0.1,0,0.1-0.1,0.2-0.1c0.1-0.1,0.2-0.2,0.3-0.3c0.2-0.3,0.3-0.7,0.3-1.1c0-0.2-0.1-0.3-0.2-0.5c-0.7-1.3-1.4-2.5-2.1-3.8
	c-0.7-1.3-1.4-2.6-2.1-3.9c-0.1-0.1-0.2-0.3-0.3-0.4c-0.3-0.3-0.8-0.4-1.2-0.3c-0.2,0-0.3,0.1-0.5,0.2L85,32.5
	C87,35.9,88.8,39.4,90.7,42.9z M81.3,51.8v33.5c0,0.1,0,0.1,0,0.2c0,0.1-0.1,0.3-0.1,0.4c-0.2,0.5-0.6,0.8-1,1
	C80,87,79.9,87,79.8,87c-0.1,0-0.1,0-0.2,0c-23,0-46.1,0-69.1,0c-0.1,0-0.1,0-0.2,0c-0.1,0-0.3-0.1-0.4-0.1c-0.5-0.2-0.8-0.6-1-1
	c-0.1-0.1-0.1-0.3-0.1-0.4c0-0.1,0-0.1,0-0.2V16.2c0-0.1,0-0.1,0-0.2c0-0.1,0.1-0.3,0.1-0.4c0.2-0.5,0.6-0.8,1-1
	c0.1-0.1,0.3-0.1,0.4-0.1c0.1,0,0.1,0,0.2,0h22.4l0,0c-0.4-1.6-0.2-3.3,0.5-4.8c0.3-0.7,0.7-1.3,1.2-1.8C35.2,7,36,6.3,36.9,5.9
	c1-0.5,2-0.7,3.1-0.7c0.9,0,1.9,0.1,2.8,0.5c0.9,0.3,1.8,0.8,2.5,1.5c0.6,0.5,1.1,1.1,1.5,1.8c0.4,0.6,0.6,1.3,0.8,2
	c0,0.1,0.1,0.2,0.1,0.3c0.2,0.1,0.3,0.3,0.5,0.4c0.7,0.7,1.3,1.5,1.8,2.3c0.1,0.1,0.1,0.3,0.2,0.4h29.4c0.1,0,0.1,0,0.2,0
	c0.1,0,0.3,0.1,0.4,0.1c0.5,0.2,0.8,0.6,1,1c0.1,0.1,0.1,0.3,0.1,0.4c0,0.1,0,0.1,0,0.2v14.3l7.1-3.9c0.5-0.3,1-0.4,1.5-0.5
	c0.7-0.1,1.4-0.1,2,0.1c0.7,0.2,1.4,0.5,2,1c0.3,0.3,0.6,0.6,0.8,0.9c0.1,0.1,0.2,0.3,0.3,0.4c0.7,1.3,1.4,2.6,2.1,3.9
	c0.7,1.3,1.4,2.5,2.1,3.8c0.3,0.5,0.4,1,0.5,1.5c0.1,0.7,0.1,1.5-0.1,2.2c-0.2,0.7-0.6,1.4-1.1,2c-0.4,0.4-0.8,0.8-1.4,1.1
	L81.3,51.8L81.3,51.8z M77.8,32.4V17.9h-27c0,0.3,0,0.6-0.1,0.9c-0.1,0.8-0.3,1.5-0.6,2.2c-0.8,1.7-2.1,3.1-3.7,3.9
	c-0.7,0.4-1.4,0.6-2.2,0.8c-0.4,0.1-0.8,0.1-1.1,0.1c-0.1,0-0.3,0-0.4,0c-0.4,0-0.8,0-1.1-0.1c-0.8-0.1-1.5-0.3-2.2-0.6
	c-1.6-0.7-3-2-3.8-3.6c-0.4-0.7-0.7-1.5-0.8-2.3c-0.1-0.5-0.2-1-0.2-1.4H12.2c0,21.9,0,43.7,0,65.6h65.6V53.8L42.4,73.2h0
	c0,0,0,0-0.1,0c0,0-0.1,0-0.1,0c0,0-0.1,0-0.2,0.1c-0.1,0-0.2,0-0.2,0.1c0,0,0,0-0.1,0c0,0,0,0-0.1,0l0,0h0c0,0,0,0-0.1,0
	c0,0,0,0,0,0l0,0l-15.2-0.3l-0.2,0c-0.1,0-0.1,0-0.2,0c-0.2-0.1-0.4-0.2-0.6-0.3c-0.5-0.4-0.8-1.1-0.7-1.7c0-0.1,0.1-0.3,0.1-0.4
	c0-0.1,0.1-0.1,0.1-0.2l7.9-13c0.1-0.1,0.1-0.2,0.2-0.3c0.1-0.1,0.2-0.2,0.3-0.2c0,0,0,0,0.1,0c0,0,0.1,0,0.1-0.1l0,0L77.8,32.4z
	 M38.6,20.1c0.4,0.7,1.1,1.3,1.8,1.8c0.6,0.3,1.2,0.5,1.9,0.6c0.1,0,0.2,0,0.4,0c0.7,0,1.3-0.1,1.9-0.4c0.9-0.4,1.7-1.1,2.1-1.9
	c0.2-0.4,0.4-0.8,0.5-1.3c0.1-0.5,0.2-1.1,0.1-1.6c0-0.4-0.1-0.8-0.3-1.1c-0.2,0.5-0.5,0.9-0.8,1.3c-0.6,0.8-1.4,1.5-2.3,2
	c-0.7,0.4-1.4,0.6-2.2,0.8c-0.3,0.1-0.7,0.1-1,0.1c-0.1,0-0.3,0-0.4,0c-0.3,0-0.6,0-1-0.1C39,20.2,38.8,20.2,38.6,20.1z M38.4,16.3
	c0.5,0.3,1.1,0.4,1.7,0.4c0.1,0,0.1,0,0.1,0h0c0.6,0,1.2-0.1,1.7-0.4c0.5-0.2,0.9-0.6,1.3-1c0.3-0.3,0.5-0.6,0.6-1c0,0,0,0,0,0l0,0
	l0,0l0,0l0,0l0,0l0,0l0,0l0,0l0,0l0,0l0,0l0,0l0,0l0,0l0,0l0,0l0,0l0,0c0,0,0,0,0,0l0,0l0,0l0,0l0,0l0,0l0,0l0,0l0,0l0,0l0,0l0,0
	l0,0l0,0l0,0l0,0l0,0l0,0v0c0,0,0,0,0,0l0,0l0,0l0,0l0,0l0,0l0,0l0,0l0,0l0,0l0,0l0,0l0,0l0,0l0,0l0,0l0,0l0,0l0,0l0,0v0l0,0l0,0
	l0,0l0,0l0,0l0,0l0,0l0,0l0,0l0,0l0,0l0,0l0,0l0,0l0,0l0,0l0,0l0,0l0,0v0l0,0l0,0l0,0v0l0,0l0,0l0,0l0,0l0,0l0,0l0,0l0,0l0,0l0,0
	l0,0v0c0,0,0-0.1,0-0.1c0.1-0.5,0.1-1-0.1-1.5c-0.1-0.4-0.2-0.7-0.4-1c-0.2-0.4-0.5-0.7-0.8-1c-0.2-0.2-0.4-0.3-0.6-0.5h0l0,0
	c0,0,0,0-0.1,0h0l0,0c0,0,0,0-0.1,0l0,0l0,0c0,0,0,0,0,0l0,0h0l0,0l0,0l0,0l0,0c0,0,0,0,0,0l0,0l0,0l0,0l0,0l0,0l0,0c0,0,0,0,0,0h0
	l0,0l0,0l0,0l0,0l0,0c0,0,0,0,0,0l0,0l0,0l0,0l0,0l0,0l0,0c0,0,0,0,0,0l0,0l0,0l0,0l0,0l0,0l0,0c0,0,0,0,0,0l0,0l0,0l0,0l0,0l0,0
	l0,0c0,0,0,0,0,0l0,0l0,0l0,0l0,0h0v0c0,0,0,0,0,0l0,0l0,0c0,0,0,0,0,0c-0.5-0.2-1-0.3-1.5-0.3c0,0,0,0,0,0h0c-0.5,0-1,0.1-1.5,0.3
	c-0.5,0.2-0.9,0.4-1.2,0.8c-0.3,0.3-0.6,0.6-0.8,1c-0.2,0.3-0.3,0.7-0.4,1.1c0,0,0,0,0,0l0,0l0,0l0,0l0,0l0,0l0,0l0,0l0,0v0l0,0
	c0,0,0,0,0,0l0,0l0,0l0,0l0,0l0,0v0l0,0l0,0l0,0v0c0,0,0,0,0,0l0,0l0,0l0,0l0,0l0,0v0l0,0l0,0l0,0v0c0,0,0,0,0,0l0,0l0,0l0,0l0,0
	l0,0l0,0l0,0l0,0l0,0v0c0,0,0,0,0,0l0,0l0,0l0,0l0,0l0,0v0l0,0l0,0l0,0v0c0,0,0,0,0,0v0l0,0l0,0v0l0,0l0,0v0l0,0l0,0v0v0l0,0l0,0v0
	l0,0v0l0,0v0v0v0l0,0v0v0v0l0,0v0v0v0v0l0,0v0v0c0,0.5,0.1,1.1,0.3,1.6c0.2,0.4,0.4,0.7,0.6,1c0.3,0.4,0.7,0.7,1.2,1L38.4,16.3
	L38.4,16.3C38.3,16.3,38.4,16.3,38.4,16.3z"/>
</svg>
