<?xml version="1.0" encoding="utf-8"?>
<!-- Generator: Adobe Illustrator 23.0.4, SVG Export Plug-In . SVG Version: 6.00 Build 0)  -->
<!DOCTYPE svg PUBLIC "-//W3C//DTD SVG 1.1//EN" "http://www.w3.org/Graphics/SVG/1.1/DTD/svg11.dtd" [
	<!ENTITY ns_extend "http://ns.adobe.com/Extensibility/1.0/">
	<!ENTITY ns_ai "http://ns.adobe.com/AdobeIllustrator/10.0/">
	<!ENTITY ns_graphs "http://ns.adobe.com/Graphs/1.0/">
	<!ENTITY ns_vars "http://ns.adobe.com/Variables/1.0/">
	<!ENTITY ns_imrep "http://ns.adobe.com/ImageReplacement/1.0/">
	<!ENTITY ns_sfw "http://ns.adobe.com/SaveForWeb/1.0/">
	<!ENTITY ns_custom "http://ns.adobe.com/GenericCustomNamespace/1.0/">
	<!ENTITY ns_adobe_xpath "http://ns.adobe.com/XPath/1.0/">
]>
<svg version="1.1" id="Layer_1" xmlns:x="&ns_extend;" xmlns:i="&ns_ai;" xmlns:graph="&ns_graphs;"
	 xmlns="http://www.w3.org/2000/svg" xmlns:xlink="http://www.w3.org/1999/xlink" x="0px" y="0px" viewBox="0 0 51 63.8"
	 style="enable-background:new 0 0 51 63.8;" xml:space="preserve">
<style type="text/css">
	.st0{fill:#841D9E;}
</style>
<metadata>
	<sfw  xmlns="&ns_sfw;">
		<slices></slices>
		<sliceSourceBounds  bottomLeftOrigin="true" height="51" width="51" x="0" y="12.8"></sliceSourceBounds>
	</sfw>
</metadata>
<path class="st0" d="M1.7,12.4c-0.6,0-1-0.4-1-1c0-0.1,0-0.2,0.1-0.4C2.4,6.1,6.3,2.3,11.2,0.7c0.5-0.2,1.1,0.1,1.3,0.7
	s-0.1,1.1-0.7,1.3c-4.3,1.4-7.7,4.7-9.1,9C2.6,12.1,2.2,12.3,1.7,12.4z"/>
<path class="st0" d="M35,51H16C7.2,51,0,43.8,0,35V16c0-0.4,0-0.9,0.1-1.3c0-0.6,0.5-1,1.1-0.9s1,0.5,0.9,1.1c0,0.4,0,0.8,0,1.1v19
	c0,7.7,6.3,14,14,14h19c7.7,0,14-6.3,14-14V16c0-7.7-6.3-14-14-14H16c-0.4,0-0.8,0-1.1,0c-0.6,0-1-0.4-1.1-0.9c0,0,0,0,0,0
	c0-0.5,0.4-1,0.9-1C15.1,0,15.6,0,16,0h19c8.8,0,16,7.2,16,16v19C51,43.8,43.8,51,35,51z"/>
<path class="st0" d="M25.5,44.4c-2.7,0-4.9-2.2-4.9-4.9c0-2.7,2.2-4.9,4.9-4.9s4.9,2.2,4.9,4.9l0,0C30.4,42.2,28.2,44.4,25.5,44.4z
	 M25.5,36.5c-1.6,0-2.9,1.3-2.9,2.9c0,1.6,1.3,2.9,2.9,2.9s2.9-1.3,2.9-2.9c0,0,0,0,0,0C28.4,37.8,27.1,36.5,25.5,36.5
	C25.5,36.5,25.5,36.5,25.5,36.5L25.5,36.5z"/>
<path class="st0" d="M25.5,32.5c-2.8-0.1-5-2.5-4.9-5.3V9.4c0-1.7,1.9-2.8,4.9-2.8s4.9,1.1,4.9,2.8v17.7
	C30.5,30,28.3,32.3,25.5,32.5z M25.5,8.6c-1.9,0-2.9,0.6-2.9,0.8v17.7c-0.1,1.7,1.2,3.2,2.9,3.3c1.7-0.1,3-1.6,2.9-3.3V9.4
	C28.4,9.2,27.4,8.6,25.5,8.6z"/>
</svg>
