<?xml version="1.0" encoding="utf-8"?>
<!-- Generator: Adobe Illustrator 23.0.4, SVG Export Plug-In . SVG Version: 6.00 Build 0)  -->
<!DOCTYPE svg PUBLIC "-//W3C//DTD SVG 1.1//EN" "http://www.w3.org/Graphics/SVG/1.1/DTD/svg11.dtd" [
	<!ENTITY ns_extend "http://ns.adobe.com/Extensibility/1.0/">
	<!ENTITY ns_ai "http://ns.adobe.com/AdobeIllustrator/10.0/">
	<!ENTITY ns_graphs "http://ns.adobe.com/Graphs/1.0/">
	<!ENTITY ns_vars "http://ns.adobe.com/Variables/1.0/">
	<!ENTITY ns_imrep "http://ns.adobe.com/ImageReplacement/1.0/">
	<!ENTITY ns_sfw "http://ns.adobe.com/SaveForWeb/1.0/">
	<!ENTITY ns_custom "http://ns.adobe.com/GenericCustomNamespace/1.0/">
	<!ENTITY ns_adobe_xpath "http://ns.adobe.com/XPath/1.0/">
]>
<svg version="1.1" id="Layer_1" xmlns:x="&ns_extend;" xmlns:i="&ns_ai;" xmlns:graph="&ns_graphs;"
	 xmlns="http://www.w3.org/2000/svg" xmlns:xlink="http://www.w3.org/1999/xlink" x="0px" y="0px" viewBox="0 0 100 125"
	 style="enable-background:new 0 0 100 125;" xml:space="preserve">
<style type="text/css">
	.st0{fill:#841D9E;}
</style>
<metadata>
	<sfw  xmlns="&ns_sfw;">
		<slices></slices>
		<sliceSourceBounds  bottomLeftOrigin="true" height="74.7" width="90" x="5" y="37.7"></sliceSourceBounds>
	</sfw>
</metadata>
<path class="st0" d="M95,31.5c0-4.1-1-4.6-5.1-4.8c-5.3-0.3-10.5-0.3-15.8-0.6c-2.2-0.1-4.3-0.3-6.6-0.5c0-1.2,0-2,0.1-2.9
	c0.2-5.3-1.5-7.7-6.8-9c-2-0.5-4.1-0.9-6.2-1c-5.6-0.1-11.3-0.1-16.9,0c-3.2,0.1-5.2,1.9-5.7,5c-0.4,2-0.4,4.2-0.6,6.7
	c-1.2,0-2.4-0.1-3.6-0.1c-5.2,0-10.4-0.3-15.5,0.1c-5.1,0.5-6.5,2-6.8,6.8C5.1,37.1,5,42.9,5,48.7c0,2.4,0,5,2.4,6.8
	c0.4,0.3,0.4,1,0.5,1.6c0.2,4.8,0.5,9.5,0.6,14.3c0.1,3.2-0.1,6.5-0.1,9.7c-0.1,4.3,1.4,5.7,5.7,5.4c1.8-0.1,3.6-0.4,5.4-0.4
	c15.9,0.1,31.7,0.3,47.6,0.5c6.7,0.1,13.3,0.4,20,0.6c3.8,0.1,3.6,0.1,3.8-3.7c0.5-11.6-1.2-23.3,2.5-34.8
	C95.1,43.4,94.9,37.3,95,31.5z M40.7,16c5.8,0,11.6,0.1,17.4,0.6c5.2,0.4,7,2.8,6,6.9c-0.2,0.8-1,1.4-1.5,2.1
	c-1.4-7.1-1.3-7.3-8.1-8.2c-4.2-0.6-8.6-0.3-12.8-0.2c-3.2,0-4.6,1.9-4.6,4.9c0,0.5,0,1-0.1,1.4c-0.2,0.5-0.6,0.8-1,1.2
	c-0.4-0.4-1-0.8-1.2-1.3C33.9,18.6,35.8,16,40.7,16z M58.6,25.1c-6-0.1-11.9-0.3-17.9-0.4c-0.7-3.8-0.2-4.6,3.4-4.5
	c3.9,0.1,7.8,0.6,11.7,0.8C58.5,21,59,22.6,58.6,25.1z M87.2,82.6c0,0.7-1.4,1.8-2.1,1.8c-5,0-9.9-0.3-14.9-0.6
	c-17.2-1-34.4-1.7-51.6-0.7c-2.1,0.1-4.2,0.2-6.3,0.2c-0.3-8.9-0.6-17.5-0.9-25.7c9,1.8,17.8,3.6,26.9,5.4c-0.1-0.2,0.1,0,0.1,0.2
	c-0.8,4.9-1.7,6.8,5.3,7.2c2.9,0.2,5.9,0,8.9,0c2.2,0,3.3-1.2,3.5-3.3c0.2-1.4,0.6-2.8,0.9-4.3c10.4-0.7,20.7-1.5,30.9-5.9
	C87.7,65.8,87.5,74.2,87.2,82.6z M41.6,62.8c2.2,3.2,5.3,2.5,8,2.9c0.4,0.1,1.2-0.9,1.5-1.6c0.3-0.8,0-1.7,0.1-2.6
	c1-6,1.1-6.1-4.9-6.1c-1.2,0-2.4,1-3.7,1.6c0.1-0.8,0.4-2,0.4-3.2c0-0.1,0-0.2,0-0.4c2.6,0.5,8.9,1.5,11.2,1.6
	c-0.5,3.6-1,6.9-1.4,10.2c-0.2,1.6-1,2.2-2.4,2.2c-3,0-6-0.1-9.4-0.2C41.3,65.5,41.4,64.4,41.6,62.8z M49,58.4
	c-0.3,1.6-0.6,2.8-0.9,4.3c-0.9-0.1-1.8-0.1-2.7-0.2C45,58.9,45.1,58.8,49,58.4z M91.8,33.7c-0.6,5.9-1.3,11.8-2.1,17.6
	c-0.1,0.7-1.1,1.7-1.8,1.9c-6.4,1.9-12.8,3.8-19.3,5.3c-3.6,0.8-7.3,0.7-11.3,1c0.2-1.7,0.5-3.1,0.7-4.5c0.2-1.7-0.3-3.2-2.2-3.4
	c-2.7-0.4-10.2-1.8-12.9-1.8c-1,0-2,1-2.9,1.6c0.4,0.3,0.8,0.7,1.2,1c-0.2,0.2-0.4,0.4-0.5,0.7c-0.7,1.9-1,3.8-1.5,5.7
	c-10.1-0.4-19.7-2.3-28.9-6.1c-0.8-0.3-1.8-1.6-1.8-2.5c-0.2-6.5-0.3-12.9-0.2-19.4c0-0.9,1.1-2.2,2-2.5c1.8-0.6,3.7-0.9,5.6-0.8
	c24.2,0.8,48.4,1.7,72.6,2.4C91.4,30.1,92,31.6,91.8,33.7z"/>
</svg>
